<?xml version="1.0" encoding="UTF-8"?>
<!DOCTYPE svg PUBLIC "-//W3C//DTD SVG 1.1//EN" "http://www.w3.org/Graphics/SVG/1.1/DTD/svg11.dtd">
<!-- Creator: CorelDRAW X7 -->
<svg xmlns="http://www.w3.org/2000/svg" xml:space="preserve" width="280px" height="50px" version="1.1" style="shape-rendering:geometricPrecision; text-rendering:geometricPrecision; image-rendering:optimizeQuality; fill-rule:evenodd; clip-rule:evenodd"
viewBox="0 0 246 44"
 xmlns:xlink="http://www.w3.org/1999/xlink">
 <defs>
  <style type="text/css">
   <![CDATA[
    .fil0 {fill:#E82323}
   ]]>
  </style>
 </defs>
 <g id="Слой_x0020_1">
  <metadata id="CorelCorpID_0Corel-Layer"/>
  <g id="Макси-лого2.cdr">
   <polygon class="fil0" points="93,7 71,7 56,29 42,7 12,7 12,8 12,14 12,14 20,14 20,30 12,30 12,37 39,37 39,30 32,30 32,14 34,14 49,37 49,37 64,37 79,14 81,14 81,30 74,30 74,37 93,37 93,44 0,44 0,0 93,0 "/>
   <path class="fil0" d="M116 31c0,0 0,0 1,0l4 -31 0 0 15 0 0 44 -10 0 0 -37c0,0 0,-1 0,-1l-6 38 -9 0 0 -1 -6 -36c0,0 0,0 0,-1l0 38 -8 0 0 -44 15 0 4 31z"/>
   <path class="fil0" d="M162 13c1,2 1,5 1,7l0 24 -9 0c0,-1 0,-3 0,-4 -1,1 -3,3 -4,4l-7 0c-1,-1 -2,-1 -2,-2 -2,-3 -1,-7 -1,-11 1,-8 11,-7 14,-13 0,-1 -1,-2 -1,-3 -1,0 -1,-1 -2,0 -3,1 -1,4 -2,6l-9 0c0,-4 0,-8 3,-10 4,-3 10,-3 15,-2 1,1 3,2 4,4zm-8 13c-1,4 0,7 -1,10 -1,1 -2,1 -2,1 -1,-1 -1,-1 -1,-2 0,-2 -1,-5 0,-6 1,-1 2,-2 4,-3z"/>
   <path class="fil0" d="M217 13c1,2 1,5 1,8l-10 0c0,-2 1,-5 -2,-6 0,-1 -1,0 -2,0l0 1 0 21c0,0 1,1 1,1 1,0 2,0 2,-1 1,-2 1,-4 1,-7l10 0c0,5 0,10 -4,13 -1,0 -2,1 -3,1l-10 0c-1,-1 -3,-1 -4,-2 -2,-1 -3,-4 -3,-7l0 -18c0,-3 2,-6 4,-7 6,-3 15,-3 19,3z"/>
   <path class="fil0" d="M177 9c0,5 0,11 0,16l5 -16 9 0 -5 16 6 19 -10 0c-2,-6 -3,-12 -5,-18l0 0 0 18 -10 0 0 -35 10 0z"/>
   <path class="fil0" d="M230 9c0,6 0,12 0,17l6 -17 10 0 0 35 -10 0 0 -19 0 0 -5 19 -10 0 0 -35 9 0z"/>
  </g>
 </g>
</svg>
